<mxfile host="app.diagrams.net" modified="2024-03-26T05:39:28.013Z" agent="Mozilla/5.0 (Macintosh; Intel Mac OS X 10_15_7) AppleWebKit/537.36 (KHTML, like Gecko) Chrome/123.0.0.0 Safari/537.36" etag="PU7QECgATyQIUjF5M7Pc" version="24.1.0" type="device">
  <diagram name="Page-1" id="sqaKkS45kOXXCTRQQlgP">
    <mxGraphModel dx="986" dy="1081" grid="1" gridSize="10" guides="1" tooltips="1" connect="1" arrows="1" fold="1" page="1" pageScale="1" pageWidth="827" pageHeight="1169" math="0" shadow="0">
      <root>
        <mxCell id="0" />
        <mxCell id="1" parent="0" />
      </root>
    </mxGraphModel>
  </diagram>
</mxfile>
